<svg width="110" height="180" viewBox="0 0 110 180" fill="none" xmlns="http://www.w3.org/2000/svg">
<path fill-rule="evenodd" clip-rule="evenodd" d="M0 155.077L6.29371 68.4753L43.3007 90.1257L101.203 56.1396L109.259 141.734L43.049 180L0 155.077ZM13.3423 92.8952L14.3493 82.8253L35.7479 95.6645V105.734L13.3423 92.8952ZM12.3355 102.462V112.28L35.7481 126.126V115.804L12.3355 102.462ZM10.825 131.664V121.595L35.9998 135.944V146.518L10.825 131.664ZM50.8532 94.9088V105.23L94.6575 80.0556L94.154 69.7339L50.8532 94.9088ZM49.8466 125.371V115.05L94.6579 89.1195L95.4131 99.1894L49.8466 125.371ZM50.0976 134.937V146.014L97.4263 118.322L96.6711 108.252L50.0976 134.937Z" fill="black"/>
<path fill-rule="evenodd" clip-rule="evenodd" d="M62.4336 0L26.1819 20.8951V41.5385L42.7973 51.3567L79.3008 30.4615V10.0699L62.4336 0ZM62.1815 7.55212L32.7269 24.671L43.3004 30.9648L72.5032 13.8458L62.1815 7.55212Z" fill="black"/>
<path d="M43.3009 60.4199L17.8743 45.8185V66.2101L43.3009 80.5598L88.6156 54.3779V33.9863L43.3009 60.4199Z" fill="black"/>
</svg>
